<svg xmlns="http://www.w3.org/2000/svg" xmlns:xlink="http://www.w3.org/1999/xlink" width="200" zoomAndPan="magnify" viewBox="0 0 150 112.499997" height="150" preserveAspectRatio="xMidYMid meet" version="1.2"><g id="de598a0fb1"><path style=" stroke:none;fill-rule:nonzero;fill:#000000;fill-opacity:1;" d="M 100.566406 35.277344 C 100.503906 37.121094 100.074219 39.765625 99.582031 41.117188 C 99.089844 42.46875 98.660156 44.496094 98.660156 45.542969 C 98.660156 47.324219 98.476562 47.570312 97.125 47.570312 C 95.339844 47.570312 92.515625 50.027344 92.515625 51.5625 C 92.515625 52.546875 92.207031 52.730469 89.320312 53.347656 C 87.722656 53.714844 87.597656 53.59375 87.597656 51.625 C 87.597656 49.84375 87.351562 49.476562 85.9375 49.167969 C 83.664062 48.613281 82.683594 46.402344 82.683594 41.671875 C 82.683594 39.148438 82.925781 37.738281 83.480469 37.550781 C 84.035156 37.308594 83.972656 37.0625 83.296875 36.570312 C 82.804688 36.199219 82.25 35.894531 82.066406 35.894531 C 81.882812 35.894531 81.328125 36.199219 80.839844 36.570312 C 80.164062 37.0625 80.101562 37.308594 80.714844 37.550781 C 81.699219 37.921875 81.699219 45.601562 80.652344 47.261719 C 79.609375 49.042969 74.816406 49.105469 73.402344 47.386719 C 72.113281 45.726562 70.453125 45.480469 70.820312 46.957031 C 71.066406 47.753906 70.207031 48.554688 67.6875 50.027344 C 64.859375 51.625 64.246094 52.242188 64.246094 53.652344 C 64.246094 54.574219 64.550781 55.621094 64.921875 55.988281 C 65.660156 56.726562 63.386719 58.691406 61.789062 58.570312 C 61.109375 58.570312 61.109375 58.449219 61.664062 58.203125 C 62.277344 57.957031 62.21875 57.710938 61.355469 57.035156 C 60.128906 56.113281 59.265625 55.925781 59.390625 56.605469 C 59.574219 57.832031 59.265625 58.632812 58.53125 58.632812 C 58.101562 58.632812 56.746094 59.308594 55.519531 60.167969 C 52.9375 61.890625 48.265625 62.320312 48.265625 60.84375 C 48.265625 60.351562 47.34375 59.859375 45.992188 59.613281 C 41.875 58.9375 40.890625 59.125 40.890625 60.476562 C 40.890625 61.765625 39.910156 62.195312 39.539062 61.089844 C 39.417969 60.722656 38.3125 60.289062 37.082031 60.105469 C 35.238281 59.800781 34.808594 59.921875 34.5625 60.84375 C 34.378906 61.703125 34.253906 61.582031 34.195312 60.414062 C 34.132812 59.308594 33.703125 58.691406 32.839844 58.449219 C 31.859375 58.203125 31.613281 57.769531 31.859375 56.847656 C 32.164062 55.496094 31.429688 55.066406 30.753906 56.171875 C 30.078125 57.28125 29.398438 56.789062 29.03125 54.945312 C 28.601562 52.855469 27.679688 52.546875 27.1875 54.328125 C 26.941406 55.375 26.328125 55.558594 23.5625 55.621094 C 20.425781 55.742188 20.367188 55.742188 22.761719 56.113281 C 24.546875 56.359375 24.914062 56.605469 24.175781 56.910156 C 23.5625 57.15625 23.070312 57.769531 23.070312 58.203125 C 23.070312 59.800781 21.472656 60.660156 19.996094 59.859375 C 18.953125 59.308594 18.214844 59.367188 16.617188 60.105469 C 15.203125 60.78125 12.808594 61.089844 8.628906 61.089844 C 2.050781 61.089844 1.746094 61.457031 6.539062 63.855469 C 8.199219 64.714844 9.550781 65.636719 9.550781 65.945312 C 9.550781 66.3125 10.042969 66.683594 10.65625 66.867188 C 11.210938 67.050781 12.378906 68.402344 13.175781 69.816406 C 14.589844 72.273438 14.589844 72.398438 13.484375 73.195312 C 12.5625 73.871094 23.132812 73.996094 77.210938 73.933594 C 112.855469 73.933594 141.617188 73.75 141.25 73.566406 C 140.082031 73.136719 140.265625 71.660156 141.679688 70.492188 C 142.355469 69.878906 143.09375 68.585938 143.277344 67.480469 C 143.523438 66.253906 144.261719 65.207031 145.550781 64.410156 L 147.515625 63.242188 L 144.628906 63.054688 C 142.539062 62.933594 141.679688 62.625 141.679688 61.949219 C 141.679688 60.84375 139.773438 60.84375 138.238281 62.011719 C 137.378906 62.6875 135.226562 62.871094 129.878906 62.933594 C 122.6875 62.933594 122.628906 62.933594 122.628906 61.519531 C 122.628906 60.722656 121.953125 59.429688 121.089844 58.632812 C 120.292969 57.894531 119.679688 56.910156 119.738281 56.542969 C 119.800781 56.113281 118.941406 55.867188 117.589844 55.925781 C 116.050781 55.988281 115.253906 55.742188 115.253906 55.191406 C 115.253906 54.761719 114.945312 52.976562 114.578125 51.257812 C 114.085938 48.921875 113.65625 48.183594 112.796875 48.183594 C 111.933594 48.183594 111.503906 48.800781 111.195312 50.335938 C 110.765625 52.671875 110.03125 52.976562 108.125 51.625 C 107.078125 50.828125 107.078125 50.519531 107.753906 49.414062 C 108.246094 48.675781 108.371094 48.183594 108.0625 48.308594 C 107.816406 48.429688 106.832031 48.921875 105.910156 49.351562 C 104.621094 50.027344 104.007812 50.027344 103.390625 49.535156 C 102.65625 48.859375 101.792969 43.515625 100.871094 34.050781 C 100.75 32.636719 100.6875 33.066406 100.566406 35.277344 Z M 100.566406 35.277344 "/></g></svg>