<svg xmlns="http://www.w3.org/2000/svg" xmlns:xlink="http://www.w3.org/1999/xlink" width="220" zoomAndPan="magnify" viewBox="0 0 165 112.499997" height="150" preserveAspectRatio="xMidYMid meet" version="1.2"><g id="c097ce739b"><path style=" stroke:none;fill-rule:nonzero;fill:#000000;fill-opacity:1;" d="M 67.761719 47.359375 C 67.558594 49.523438 67.019531 51.347656 66.613281 51.484375 C 66.277344 51.617188 65.9375 52.566406 65.9375 53.511719 C 65.9375 55.742188 63.234375 57.230469 60.867188 56.351562 C 59.449219 55.808594 58.703125 53.984375 58.097656 49.253906 C 57.824219 46.953125 57.015625 44.859375 56.472656 44.859375 C 55.796875 44.859375 54.785156 47.5625 55.054688 48.578125 C 55.121094 48.914062 55.054688 50.808594 54.785156 52.769531 C 54.378906 55.878906 54.109375 56.351562 52.351562 56.960938 C 51.269531 57.296875 50.1875 58.109375 49.984375 58.71875 C 49.714844 59.324219 48.835938 59.730469 47.414062 59.664062 C 45.996094 59.597656 45.792969 59.460938 46.738281 59.257812 C 48.632812 58.917969 49.308594 56.554688 47.820312 55.742188 C 47.144531 55.40625 45.453125 54.929688 43.96875 54.730469 C 42.480469 54.457031 40.113281 54.121094 38.628906 53.851562 C 36.394531 53.511719 36.058594 53.578125 36.328125 54.730469 C 36.464844 55.472656 37.476562 56.214844 38.898438 56.621094 C 41.535156 57.363281 42.546875 58.378906 41.601562 59.324219 C 40.65625 60.273438 27 60.746094 26.457031 59.796875 C 26.121094 59.324219 26.390625 59.191406 27 59.460938 C 27.609375 59.664062 28.082031 59.527344 28.082031 59.121094 C 28.082031 58.242188 23.417969 56.082031 22.808594 56.621094 C 22.671875 56.824219 23.011719 57.164062 23.621094 57.433594 C 24.972656 57.972656 25.039062 59.460938 23.621094 60 C 23.011719 60.203125 18.144531 60.40625 12.804688 60.40625 C 7.464844 60.40625 3.070312 60.542969 3.070312 60.675781 C 3.070312 60.8125 4.960938 62.773438 7.328125 65.070312 L 11.519531 69.195312 L 83.851562 68.992188 L 156.117188 68.855469 L 161.929688 59.394531 L 149.832031 59.191406 C 140.5 59.054688 137.527344 58.785156 136.984375 58.109375 C 136.308594 57.363281 136.511719 56.824219 137.730469 55.742188 L 139.21875 54.324219 L 136.917969 55.066406 C 135.632812 55.539062 134.148438 56.148438 133.742188 56.554688 C 132.320312 57.636719 132.726562 58.515625 134.417969 58.042969 C 135.703125 57.703125 135.703125 57.769531 134.753906 58.378906 C 134.011719 58.785156 130.699219 59.054688 126.304688 58.917969 C 120.425781 58.785156 119.003906 58.515625 119.003906 57.703125 C 119.003906 57.164062 120.019531 56.484375 121.371094 56.082031 C 122.65625 55.742188 123.804688 55.40625 123.804688 55.40625 C 123.871094 55.335938 124.140625 54.59375 124.414062 53.714844 C 124.816406 52.296875 124.75 52.160156 123.667969 52.566406 C 122.925781 52.835938 120.425781 53.375 118.058594 53.714844 C 115.625 54.050781 113.324219 54.660156 112.785156 55.066406 C 111.367188 56.285156 111.703125 58.378906 113.324219 58.378906 C 114.070312 58.378906 114.476562 58.648438 114.273438 59.054688 C 113.597656 60.136719 107.917969 59.867188 106.769531 58.71875 C 106.023438 58.042969 104.335938 57.703125 101.496094 57.703125 C 98.589844 57.703125 96.964844 57.363281 96.359375 56.6875 C 95.953125 56.148438 94.058594 55.675781 92.097656 55.539062 C 88.988281 55.335938 88.652344 55.132812 88.179688 53.511719 C 87.90625 52.363281 87.976562 51.550781 88.449219 51.347656 C 88.921875 51.214844 88.71875 51.011719 88.109375 51.011719 C 87.433594 50.941406 86.894531 50.46875 86.894531 49.929688 C 86.894531 49.117188 86.015625 48.914062 82.839844 48.914062 L 78.78125 48.914062 L 78.78125 46.210938 C 78.78125 43.640625 78.648438 43.507812 76.753906 43.507812 C 74.859375 43.507812 74.726562 43.640625 74.726562 46.210938 C 74.726562 48.171875 74.457031 48.914062 73.710938 48.914062 C 72.96875 48.914062 72.699219 48.171875 72.699219 46.210938 C 72.699219 43.574219 72.628906 43.507812 70.398438 43.507812 C 68.167969 43.507812 68.167969 43.507812 67.761719 47.359375 Z M 67.761719 47.359375 "/></g></svg>