<svg xmlns="http://www.w3.org/2000/svg" xmlns:xlink="http://www.w3.org/1999/xlink" width="180" zoomAndPan="magnify" viewBox="0 0 135 112.499997" height="150" preserveAspectRatio="xMidYMid meet" version="1.2"><g id="794927383d"><path style=" stroke:none;fill-rule:nonzero;fill:#000000;fill-opacity:1;" d="M 72.203125 39.597656 C 72.203125 43.914062 72.035156 44.855469 71.371094 44.855469 C 70.875 44.855469 70.542969 45.351562 70.542969 46.238281 C 70.542969 47.453125 70.320312 47.617188 68.328125 47.617188 C 66.726562 47.617188 66.117188 47.839844 66.117188 48.449219 C 66.117188 48.945312 66.613281 49.277344 67.5 49.277344 L 68.882812 49.277344 L 66.890625 52.320312 L 64.84375 55.363281 L 58.980469 55.363281 C 55.773438 55.363281 50.242188 55.640625 46.757812 55.914062 C 37.742188 56.632812 26.40625 57.519531 20.097656 57.960938 L 14.679688 58.292969 L 14.679688 56.855469 C 14.679688 55.804688 14.957031 55.363281 15.675781 55.308594 C 16.449219 55.308594 16.394531 55.195312 15.453125 54.699219 C 14.625 54.3125 13.90625 54.3125 13.242188 54.753906 C 12.300781 55.308594 12.246094 55.308594 13.1875 55.363281 C 13.792969 55.363281 14.125 55.804688 14.125 56.746094 C 14.125 57.742188 13.847656 58.128906 13.074219 58.128906 C 12.523438 58.128906 11.027344 58.515625 9.757812 58.957031 L 7.488281 59.730469 L 7.488281 56.191406 C 7.488281 53.480469 7.269531 52.597656 6.714844 52.597656 C 5.886719 52.597656 5.277344 54.976562 5.277344 58.460938 C 5.277344 59.789062 5.054688 60.894531 4.722656 60.894531 C 4.445312 60.894531 4.171875 61.390625 4.171875 62 C 4.171875 62.609375 4.390625 63.105469 4.667969 63.105469 C 4.945312 63.105469 5.332031 64.875 5.554688 66.976562 C 6.050781 71.789062 7.101562 71.898438 7.488281 67.199219 C 7.65625 65.261719 7.929688 64.210938 8.207031 64.597656 C 8.539062 65.152344 16.503906 65.375 44.160156 65.429688 L 79.667969 65.59375 L 44.378906 65.707031 L 9.09375 65.871094 L 10.863281 68.359375 C 11.859375 69.742188 13.1875 70.960938 13.792969 71.070312 C 14.457031 71.179688 16.226562 71.625 17.722656 72.011719 C 19.878906 72.617188 29.667969 72.730469 62.523438 72.785156 C 100.90625 72.785156 104.835938 72.675781 108.042969 71.789062 C 115.507812 69.742188 125.132812 64.65625 129.667969 60.394531 L 131.546875 58.625 L 130.222656 57.242188 C 129.503906 56.46875 127.898438 55.195312 126.679688 54.476562 C 124.46875 53.207031 124.082031 53.207031 105.828125 52.816406 L 87.246094 52.429688 L 86.636719 51.105469 C 85.863281 49.390625 85.863281 49.277344 86.859375 49.277344 C 87.300781 49.277344 87.6875 49 87.6875 48.726562 C 87.6875 48.394531 87.078125 48.171875 86.359375 48.171875 C 85.585938 48.171875 84.8125 47.894531 84.644531 47.617188 C 84.480469 47.289062 82.433594 47.066406 80.222656 47.066406 C 76.625 47.066406 76.074219 46.957031 76.183594 46.070312 C 76.347656 43.691406 76.019531 39.15625 75.6875 39.542969 C 75.464844 39.765625 75.355469 41.039062 75.464844 42.363281 C 75.574219 44.578125 75.464844 44.855469 74.46875 44.855469 C 73.363281 44.855469 73.308594 44.523438 73.308594 39.597656 C 73.308594 36.445312 73.085938 34.34375 72.753906 34.34375 C 72.421875 34.34375 72.203125 36.445312 72.203125 39.597656 Z M 83.261719 50.9375 C 83.261719 51.214844 83.042969 51.492188 82.710938 51.492188 C 82.433594 51.492188 82.15625 51.214844 82.15625 50.9375 C 82.15625 50.605469 82.433594 50.382812 82.710938 50.382812 C 83.042969 50.382812 83.261719 50.605469 83.261719 50.9375 Z M 111.472656 54.035156 C 111.472656 54.144531 110.640625 54.257812 109.703125 54.199219 C 108.207031 54.199219 108.097656 54.089844 108.980469 53.757812 C 109.976562 53.316406 111.472656 53.539062 111.472656 54.035156 Z M 106.660156 54.089844 C 106.273438 54.199219 105.496094 54.199219 105 54.089844 C 104.445312 53.925781 104.777344 53.8125 105.664062 53.8125 C 106.605469 53.8125 106.992188 53.925781 106.660156 54.089844 Z M 114.679688 54.089844 C 114.125 54.199219 113.242188 54.199219 112.742188 54.089844 C 112.191406 53.925781 112.632812 53.8125 113.683594 53.8125 C 114.734375 53.8125 115.175781 53.925781 114.679688 54.089844 Z M 119.105469 54.089844 C 118.550781 54.199219 117.554688 54.199219 116.890625 54.089844 C 116.171875 53.980469 116.613281 53.867188 117.832031 53.867188 C 119.046875 53.8125 119.601562 53.925781 119.105469 54.089844 Z M 122.976562 54.089844 C 122.421875 54.199219 121.539062 54.199219 121.039062 54.089844 C 120.488281 53.925781 120.929688 53.8125 121.980469 53.8125 C 123.03125 53.8125 123.472656 53.925781 122.976562 54.089844 Z M 122.976562 54.089844 "/><path style=" stroke:none;fill-rule:nonzero;fill:#000000;fill-opacity:1;" d="M 77.34375 44.023438 C 77.34375 45.242188 77.457031 45.683594 77.566406 44.964844 C 77.675781 44.300781 77.675781 43.304688 77.566406 42.75 C 77.402344 42.253906 77.289062 42.808594 77.34375 44.023438 Z M 77.34375 44.023438 "/></g></svg>