<svg xmlns="http://www.w3.org/2000/svg" xmlns:xlink="http://www.w3.org/1999/xlink" width="150" zoomAndPan="magnify" viewBox="0 0 112.5 112.499997" height="150" preserveAspectRatio="xMidYMid meet" version="1.2"><g id="7502da4522"><path style=" stroke:none;fill-rule:nonzero;fill:#000000;fill-opacity:1;" d="M 64.066406 36.730469 C 64.066406 38.527344 63.882812 39.078125 63.375 39.078125 C 62.824219 39.078125 62.683594 39.769531 62.683594 42.535156 L 62.683594 45.992188 L 61.117188 45.992188 C 59.828125 45.992188 59.503906 45.808594 59.320312 44.933594 L 59.136719 43.917969 L 59.042969 44.933594 C 58.996094 45.945312 58.8125 45.992188 55.355469 45.992188 C 51.898438 45.992188 51.667969 45.945312 51.484375 44.933594 L 51.300781 43.917969 L 51.207031 44.933594 C 51.160156 45.855469 50.886719 45.992188 49.316406 45.992188 C 47.796875 45.992188 47.472656 46.132812 47.472656 46.914062 C 47.472656 47.515625 47.796875 47.835938 48.394531 47.835938 C 49.085938 47.835938 49.316406 48.160156 49.316406 48.988281 C 49.316406 50.09375 49.226562 50.140625 46.320312 50.140625 C 43.417969 50.140625 43.324219 50.1875 43.324219 51.292969 L 43.324219 52.445312 L 38.71875 52.445312 C 35.953125 52.445312 34.109375 52.261719 34.109375 51.984375 C 34.109375 51.015625 32.726562 51.570312 32.449219 52.675781 C 32.21875 53.644531 31.894531 53.828125 30.375 53.828125 C 28.761719 53.828125 28.578125 53.96875 28.578125 54.980469 C 28.578125 55.949219 28.390625 56.085938 27.332031 55.902344 C 26.59375 55.765625 22.632812 55.257812 18.4375 54.75 C 7.882812 53.460938 8.847656 53.875 8.617188 50.464844 L 8.480469 47.605469 L 8.386719 50.601562 L 8.296875 53.597656 L 14.335938 62.722656 L 20.328125 71.804688 L 103.707031 71.804688 L 103.707031 65.351562 L 98.636719 65.351562 L 98.636719 62.585938 C 98.636719 60.144531 98.542969 59.820312 97.714844 59.820312 C 97.113281 59.820312 96.792969 59.496094 96.792969 58.898438 C 96.792969 58.023438 96.46875 57.976562 91.953125 57.976562 L 87.113281 57.976562 L 87.113281 52.445312 L 76.972656 52.445312 L 76.972656 51.292969 C 76.972656 50.554688 76.695312 50.140625 76.28125 50.140625 C 75.914062 50.140625 75.589844 49.726562 75.589844 49.21875 C 75.589844 48.4375 75.265625 48.296875 73.746094 48.296875 C 72.226562 48.296875 71.902344 48.4375 71.902344 49.21875 C 71.902344 50.601562 69.738281 50.511719 69.460938 49.082031 L 69.277344 48.066406 L 69.183594 49.082031 C 69.136719 49.820312 68.859375 50.140625 68.214844 50.140625 C 67.339844 50.140625 67.292969 49.820312 67.292969 44.609375 L 67.292969 39.078125 L 65.910156 39.078125 C 64.757812 39.078125 64.527344 38.894531 64.527344 37.925781 C 64.527344 36.867188 64.710938 36.773438 66.742188 36.730469 C 67.9375 36.730469 68.628906 36.589844 68.308594 36.453125 C 67.847656 36.269531 67.847656 36.082031 68.261719 35.578125 C 68.675781 35.070312 68.539062 34.929688 67.476562 34.929688 C 66.742188 34.929688 65.679688 34.792969 65.128906 34.65625 C 64.113281 34.378906 64.066406 34.515625 64.066406 36.730469 Z M 54.847656 49.21875 C 54.847656 50.003906 54.527344 50.140625 52.773438 50.140625 C 51.023438 50.140625 50.699219 50.003906 50.699219 49.21875 C 50.699219 48.4375 51.023438 48.296875 52.773438 48.296875 C 54.527344 48.296875 54.847656 48.4375 54.847656 49.21875 Z M 60.378906 49.21875 C 60.378906 50.003906 60.058594 50.140625 58.304688 50.140625 C 56.554688 50.140625 56.230469 50.003906 56.230469 49.21875 C 56.230469 48.4375 56.554688 48.296875 58.304688 48.296875 C 60.058594 48.296875 60.378906 48.4375 60.378906 49.21875 Z M 92.183594 59.128906 C 92.183594 59.683594 91.582031 59.820312 89.648438 59.820312 C 87.710938 59.820312 87.113281 59.683594 87.113281 59.128906 C 87.113281 58.574219 87.710938 58.4375 89.648438 58.4375 C 91.582031 58.4375 92.183594 58.574219 92.183594 59.128906 Z M 96.332031 59.128906 C 96.332031 59.636719 95.824219 59.820312 94.488281 59.820312 C 93.152344 59.820312 92.644531 59.636719 92.644531 59.128906 C 92.644531 58.621094 93.152344 58.4375 94.488281 58.4375 C 95.824219 58.4375 96.332031 58.621094 96.332031 59.128906 Z M 96.332031 59.128906 "/></g></svg>