<svg xmlns="http://www.w3.org/2000/svg" xmlns:xlink="http://www.w3.org/1999/xlink" width="180" zoomAndPan="magnify" viewBox="0 0 135 112.499997" height="150" preserveAspectRatio="xMidYMid meet" version="1.2"><g id="ff6200aa66"><path style=" stroke:none;fill-rule:nonzero;fill:#000000;fill-opacity:1;" d="M 56.382812 39.890625 C 56.160156 40.777344 55.71875 41.605469 55.386719 41.828125 C 54.945312 42.160156 55 42.378906 55.441406 42.710938 C 55.941406 43.042969 56.050781 44.039062 55.71875 46.472656 C 55.386719 49.183594 55.164062 49.738281 54.171875 49.902344 C 53.285156 50.011719 52.898438 49.625 52.34375 47.800781 C 52.011719 46.582031 51.460938 45.589844 51.183594 45.589844 C 50.90625 45.589844 50.464844 44.59375 50.296875 43.320312 C 50.023438 41.714844 49.691406 41.164062 49.136719 41.382812 C 48.695312 41.605469 48.195312 41.714844 48.085938 41.714844 C 47.976562 41.714844 47.863281 42.269531 47.863281 42.988281 C 47.863281 43.707031 47.476562 44.757812 47.035156 45.367188 C 46.59375 45.921875 46.207031 47.027344 46.207031 47.800781 C 46.207031 48.574219 45.984375 49.792969 45.761719 50.566406 C 45.429688 51.671875 45.320312 51.394531 45.042969 48.90625 L 44.710938 45.863281 L 44.65625 49.015625 C 44.601562 50.789062 44.324219 52.226562 44.105469 52.226562 C 43.828125 52.226562 43.605469 52.613281 43.605469 53.054688 C 43.605469 53.496094 43.828125 53.882812 44.046875 53.882812 C 44.324219 53.882812 44.269531 54.492188 43.992188 55.265625 C 43.71875 56.042969 43.660156 56.648438 43.882812 56.648438 C 45.042969 56.707031 42.390625 57.757812 41.171875 57.757812 C 40.34375 57.757812 39.570312 58.144531 39.347656 58.585938 C 39.179688 59.027344 38.628906 59.359375 38.074219 59.359375 C 37.136719 59.304688 37.136719 59.25 38.074219 59.027344 C 39.789062 58.585938 38.847656 56.980469 35.972656 55.433594 L 33.207031 53.941406 L 33.152344 55.210938 C 33.097656 56.097656 33.59375 56.761719 34.921875 57.480469 C 37.410156 58.808594 37.300781 59.414062 34.589844 59.304688 C 33.207031 59.25 31.992188 59.582031 31.382812 60.132812 C 30.773438 60.6875 29.390625 61.074219 28.175781 61.074219 C 27.011719 61.074219 25.519531 61.460938 24.96875 61.90625 C 24.359375 62.347656 23.472656 62.734375 23.03125 62.734375 C 22.421875 62.734375 22.476562 62.511719 23.308594 61.960938 C 24.359375 61.128906 24.359375 61.128906 23.253906 60.300781 C 22.644531 59.859375 21.8125 59.414062 21.425781 59.414062 C 21.039062 59.414062 19.492188 58.808594 17.996094 58.03125 C 14.292969 56.152344 14.511719 56.707031 18.328125 58.863281 C 21.261719 60.578125 21.316406 60.6875 20.429688 61.683594 C 19.65625 62.566406 18.496094 62.734375 12.191406 62.84375 L 4.890625 63.011719 L 6.328125 66.882812 L 7.820312 70.753906 L 65.398438 70.921875 L 122.976562 71.03125 L 126.347656 67.046875 L 129.667969 63.011719 L 121.425781 62.84375 C 113.847656 62.734375 111.691406 62.292969 114.015625 61.40625 C 114.511719 61.242188 115.730469 61.074219 116.78125 61.074219 C 117.832031 61.074219 118.660156 60.796875 118.660156 60.464844 C 118.660156 60.078125 117.996094 59.96875 116.726562 60.191406 C 115.675781 60.410156 114.789062 60.355469 114.789062 60.078125 C 114.789062 58.753906 108.761719 58.972656 108.320312 60.300781 C 108.207031 60.578125 108.816406 61.242188 109.644531 61.738281 C 111.140625 62.679688 110.917969 62.679688 102.070312 62.734375 C 93.605469 62.734375 92.886719 62.679688 92.277344 61.683594 C 91.671875 60.742188 91.78125 60.410156 93.109375 59.414062 L 94.601562 58.308594 L 92.941406 58.917969 C 89.789062 60.132812 88.792969 60.6875 88.792969 61.40625 C 88.792969 61.792969 89.125 62.238281 89.511719 62.347656 C 89.84375 62.511719 89.070312 62.679688 87.6875 62.679688 C 85.695312 62.734375 84.921875 62.457031 83.484375 61.019531 C 81.878906 59.472656 81.328125 59.304688 77.179688 59.027344 C 73.03125 58.695312 72.589844 58.585938 72.035156 57.3125 C 71.539062 56.207031 71.539062 55.875 72.089844 55.65625 C 73.140625 55.324219 72.863281 53.882812 71.703125 53.882812 C 71.09375 53.882812 70.429688 53.222656 69.988281 52.226562 C 69.601562 51.230469 68.882812 50.566406 68.273438 50.566406 C 67.722656 50.566406 67.113281 50.066406 66.945312 49.460938 C 66.78125 48.851562 66.339844 48.355469 66.0625 48.355469 C 65.730469 48.355469 65.621094 47.910156 65.839844 47.304688 C 66.226562 46.085938 65.011719 45.421875 63.847656 46.195312 C 63.1875 46.640625 63.1875 46.75 63.90625 47.191406 C 64.570312 47.691406 64.570312 47.800781 63.738281 48.132812 C 63.1875 48.296875 62.6875 48.410156 62.632812 48.296875 C 62.078125 47.46875 60.585938 43.761719 60.585938 43.375 C 60.585938 43.042969 61.472656 42.824219 62.523438 42.824219 C 63.574219 42.824219 64.457031 42.546875 64.457031 42.269531 C 64.457031 41.9375 63.351562 41.714844 61.96875 41.714844 C 60.585938 41.714844 59.480469 41.441406 59.480469 41.164062 C 59.480469 40.832031 59.09375 40.609375 58.652344 40.609375 C 58.207031 40.609375 57.820312 40.113281 57.820312 39.503906 C 57.820312 37.84375 56.769531 38.175781 56.382812 39.890625 Z M 49.636719 43.929688 C 49.800781 45.035156 49.636719 45.589844 49.136719 45.589844 C 48.695312 45.589844 48.417969 44.925781 48.417969 43.929688 C 48.417969 42.988281 48.640625 42.269531 48.914062 42.269531 C 49.191406 42.269531 49.523438 42.988281 49.636719 43.929688 Z M 49.636719 43.929688 "/><path style=" stroke:none;fill-rule:nonzero;fill:#000000;fill-opacity:1;" d="M 96.261719 57.203125 C 96.09375 57.535156 96.316406 57.589844 96.757812 57.425781 C 97.753906 57.039062 97.921875 56.648438 97.144531 56.648438 C 96.8125 56.648438 96.425781 56.871094 96.261719 57.203125 Z M 96.261719 57.203125 "/></g></svg>